<svg width="1896" height="739" fill="none" xmlns="http://www.w3.org/2000/svg"><path opacity=".2" d="M35.5 703.406l17.441-15.37v62.535l.862-.908 45.834-48.253 46.562 48.447.86.895v-62.57l17.441 15.193V776.5h-17.751l-46.678-49.239-.365-.385-.362.387-46.12 49.233H35.5v-73.09z" stroke="#949494"/><g opacity=".2"><mask id="a" fill="#fff"><path fill-rule="evenodd" clip-rule="evenodd" d="M54.906 612.722c3.222-24.122 19.266-46.748 45.094-64.74 29.03 20.22 45.698 46.294 45.698 73.765v50.111h19.071v-50.111c0-34.848-21.056-68.678-59.655-93.465L100.003 525l-5.118 3.282c-38.599 24.787-59.655 58.617-59.655 93.465v50.111h19.075V630.77h62.177v-18.048H54.906z"/></mask><path d="M100 547.982l.571-.82-.571-.399-.572.399.572.82zm-45.094 64.74l-.99-.132-.152 1.132h1.142v-1zm90.792 59.136h-1v1h1v-1zm19.071 0v1h1v-1h-1zm-59.655-143.576l-.54.842.54-.842zM100.003 525l.541-.841-.54-.347-.54.346.539.842zm-5.118 3.282l-.54-.841.54.841zM35.23 671.858h-1v1h1v-1zm19.075 0v1h1v-1h-1zm0-41.088v-1h-1v1h1zm62.177 0v1h1v-1h-1zm0-18.048h1v-1h-1v1zm-17.054-65.56c-25.978 18.096-42.242 40.943-45.513 65.428l1.983.265c3.173-23.76 18.995-46.165 44.673-64.052l-1.143-1.641zm47.27 74.585c0-27.906-16.93-54.249-46.127-74.585l-1.143 1.641c28.864 20.104 45.27 45.907 45.27 72.944h2zm0 50.111v-50.111h-2v50.111h2zm18.071-1h-19.071v2h19.071v-2zm-1-49.111v50.111h2v-50.111h-2zm-59.195-92.623c38.401 24.659 59.195 58.208 59.195 92.623h2c0-35.281-21.317-69.393-60.114-94.306l-1.081 1.683zm-5.111-3.283l5.111 3.283 1.081-1.683-5.111-3.282-1.081 1.682zm-4.038 3.283l5.118-3.282-1.08-1.684-5.118 3.283 1.08 1.683zM36.23 621.747c0-34.415 20.795-67.964 59.195-92.623l-1.08-1.683c-38.798 24.913-60.115 59.025-60.115 94.306h2zm0 50.111v-50.111h-2v50.111h2zm18.075-1H35.23v2h19.075v-2zm-1-40.088v41.088h2V630.77h-2zm1 1h62.177v-2H54.305v2zm63.177-1v-18.048h-2v18.048h2zm-1-19.048H54.906v2h61.576v-2z" fill="#949494" mask="url(#a)"/></g><path opacity=".2" d="M.5-61.546L39.219-95.62V38.713l.862-.906 99.135-104.22L239.921 38.223l.86.894v-134.41L279.5-61.615V96.5h-39.059L139.735-9.583l-.365-.385-.363.387L39.502 96.492H.5V-61.546zm856 270.122l24.392-21.496v86.055l.862-.908 63.245-66.586 64.251 66.853.86.895v-86.104l24.39 21.248V309.5h-24.71l-64.329-67.861-.365-.385-.362.388-63.559 67.853H856.5V208.576z" stroke="#949494"/><g opacity=".2"><mask id="b" fill="#fff"><path fill-rule="evenodd" clip-rule="evenodd" d="M883.409 83.792c4.437-33.215 26.527-64.371 62.091-89.146 39.972 27.843 62.92 63.745 62.92 101.574v69.001h26.26V96.22c0-47.986-28.99-94.57-82.138-128.7L945.504-37l-7.047 4.52c-53.148 34.13-82.14 80.714-82.14 128.7v69.001h26.264v-56.577h85.613V83.792h-84.785z"/></mask><path d="M945.5-5.354l.571-.82-.571-.399-.572.398.572.821zm-62.091 89.146l-.991-.132-.151 1.132h1.142v-1zm125.011 81.429h-1v1h1v-1zm26.26 0v1h1v-1h-1zM952.542-32.48l-.54.841.54-.841zM945.504-37l.541-.841-.54-.347-.54.346.539.842zm-7.047 4.52l-.54-.842.54.842zm-82.14 197.701h-1v1h1v-1zm26.264 0v1h1v-1h-1zm0-56.577v-1h-1v1h1zm85.613 0v1h1v-1h-1zm0-24.852h1v-1h-1v1zM944.928-6.175c-35.713 24.88-58.025 56.257-62.51 89.835l1.983.265c4.388-32.854 26.256-63.788 61.67-88.459l-1.143-1.64zM1009.42 96.22c0-38.263-23.21-74.436-63.349-102.395l-1.143 1.642c39.806 27.727 62.492 63.359 62.492 100.753h2zm0 69.001V96.22h-2v69.001h2zm25.26-1h-26.26v2h26.26v-2zm-1-68.001v69.001h2V96.22h-2zM952.002-31.64c52.948 34.003 81.678 80.306 81.678 127.859h2c0-48.42-29.25-95.284-82.597-129.542l-1.081 1.683zm-7.038-4.52l7.038 4.52 1.081-1.683-7.038-4.52-1.081 1.683zm-5.967 4.52l7.047-4.52-1.079-1.683-7.048 4.52 1.08 1.684zm-81.68 127.86c0-47.553 28.731-93.856 81.68-127.859l-1.08-1.683c-53.346 34.258-82.6 81.123-82.6 129.542h2zm0 69.001V96.22h-2v69.001h2zm25.264-1h-26.264v2h26.264v-2zm-1-55.577v56.577h2v-56.577h-2zm1 1h85.613v-2h-85.613v2zm86.613-1V83.792h-2v24.852h2zm-1-25.852h-84.785v2h84.785v-2z" fill="#949494" mask="url(#b)"/></g><path opacity=".2" d="M683.5 641.537l14.604-12.916v53.127l.863-.912 38.726-40.917 39.342 41.082.861.9v-53.157l14.604 12.767V703.5h-14.91l-39.473-41.79-.366-.387-.363.389-39.001 41.785H683.5v-61.96z" stroke="#949494"/><g opacity=".2"><mask id="c" fill="#fff"><path fill-rule="evenodd" clip-rule="evenodd" d="M699.844 564.494c2.726-20.484 16.301-39.699 38.156-54.977 24.564 17.171 38.668 39.312 38.668 62.642v42.554h16.137v-42.554c0-29.594-17.817-58.323-50.477-79.372L738.003 490l-4.331 2.787c-32.661 21.049-50.477 49.778-50.477 79.372v42.554h16.14v-34.892h52.611v-15.327h-52.102z"/></mask><path d="M738 509.517l.573-.82-.573-.401-.573.401.573.82zm-38.156 54.977l-.992-.131-.15 1.131h1.142v-1zm76.824 50.219h-1v1h1v-1zm16.137 0v1h1v-1h-1zm-50.477-121.926l-.542.841.542-.841zM738.003 490l.541-.841-.541-.348-.542.348.542.841zm-4.331 2.787l-.541-.84h-.001l.542.84zm-50.477 121.926h-1v1h1v-1zm16.14 0v1h1v-1h-1zm0-34.892v-1h-1v1h1zm52.611 0v1h1v-1h-1zm0-15.327h1v-1h-1v1zm-14.519-55.797c-22.005 15.384-35.8 34.819-38.575 55.666l1.983.263c2.678-20.123 16.033-39.116 37.738-54.29l-1.146-1.639zm40.241 63.462c0-23.763-14.365-46.174-39.095-63.462l-1.146 1.639c24.397 17.055 38.241 38.926 38.241 61.823h2zm0 42.554v-42.554h-2v42.554h2zm15.137-1h-16.137v2h16.137v-2zm-1-41.554v42.554h2v-42.554h-2zm-50.019-78.531c32.462 20.92 50.019 49.369 50.019 78.531h2c0-30.026-18.076-59.035-50.936-80.212l-1.083 1.681zm-4.325-2.787l4.325 2.787 1.083-1.681-4.325-2.788-1.083 1.682zm-3.248 2.787l4.331-2.787-1.083-1.682-4.33 2.788 1.082 1.681zm-50.018 78.531c0-29.162 17.557-57.611 50.019-78.531l-1.084-1.681c-32.859 21.177-50.935 50.186-50.935 80.212h2zm0 42.554v-42.554h-2v42.554h2zm15.14-1h-16.14v2h16.14v-2zm-1-33.892v34.892h2v-34.892h-2zm1 1h52.611v-2h-52.611v2zm53.611-1v-15.327h-2v15.327h2zm-1-16.327h-52.102v2h52.102v-2z" fill="#949494" mask="url(#c)"/></g><path opacity=".2" d="M1624.5 718.443l41.7-36.715V826.21l.86-.907 106.6-112.131 108.28 112.578.86.894V682.078l41.7 36.291V888.5h-42.04l-108.27-114.12-.37-.384-.36.386-106.98 114.11h-41.98V718.443z" stroke="#949494"/><g opacity=".2"><mask id="d" fill="#fff"><path fill-rule="evenodd" clip-rule="evenodd" d="M1670.09 508.945c7.46-55.806 44.61-108.152 104.41-149.776 67.22 46.779 105.81 107.099 105.81 170.656v115.93h44.16v-115.93c0-80.622-48.76-158.889-138.13-216.231L1774.51 306l-11.85 7.594c-89.37 57.342-138.13 135.609-138.13 216.231v115.93h44.17v-95.056h143.96v-41.754h-142.57z"/></mask><path d="M1774.5 359.169l.57-.821-.57-.397-.57.397.57.821zm-104.41 149.776l-.99-.132-.15 1.132h1.14v-1zm210.22 136.81h-1v1h1v-1zm44.16 0v1h1v-1h-1zm-138.13-332.161l-.54.841.54-.841zM1774.51 306l.54-.842-.54-.346-.54.346.54.842zm-11.85 7.594l-.54-.842.54.842zm-138.13 332.161h-1v1h1v-1zm44.17 0v1h1v-1h-1zm0-95.056v-1h-1v1h1zm143.96 0v1h1v-1h-1zm0-41.754h1v-1h-1v1zm-38.73-150.597c-59.95 41.728-97.32 94.295-104.83 150.465l1.98.265c7.41-55.444 44.34-107.568 103.99-149.088l-1.14-1.642zm107.38 171.477c0-63.991-38.86-124.582-106.24-171.477l-1.14 1.642c67.05 46.663 105.38 106.713 105.38 169.835h2zm0 115.93v-115.93h-2v115.93h2zm43.16-1h-44.16v2h44.16v-2zm-1-114.93v115.93h2v-115.93h-2zm-137.67-215.39c89.17 57.216 137.67 135.202 137.67 215.39h2c0-81.056-49.02-159.603-138.59-217.073l-1.08 1.683zm-11.83-7.593l11.83 7.593 1.08-1.683-11.83-7.594-1.08 1.684zm-10.77 7.594l11.85-7.594-1.08-1.684-11.85 7.594 1.08 1.684zm-137.67 215.389c0-80.188 48.49-158.174 137.67-215.39l-1.08-1.683c-89.57 57.47-138.59 136.017-138.59 217.073h2zm0 115.93v-115.93h-2v115.93h2zm43.17-1h-44.17v2h44.17v-2zm-1-94.056v95.056h2v-95.056h-2zm1 1h143.96v-2H1668.7v2zm144.96-1v-41.754h-2v41.754h2zm-1-42.754h-142.57v2h142.57v-2z" fill="#949494" mask="url(#d)"/></g><path opacity=".2" d="M1528.5 230.648l17.87-15.756v64.02l.86-.909 46.9-49.41 47.64 49.609.86.896v-64.056l17.87 15.574V305.5h-18.18l-47.76-50.415-.36-.386-.36.388-47.19 50.409h-18.15v-74.848z" stroke="#949494"/><g opacity=".2"><mask id="e" fill="#fff"><path fill-rule="evenodd" clip-rule="evenodd" d="M1548.37 137.811c3.29-24.696 19.71-47.861 46.13-66.282 29.7 20.702 46.75 47.396 46.75 75.522v51.304h19.51v-51.304c0-35.678-21.54-70.314-61.03-95.69L1594.5 48l-5.23 3.36c-39.49 25.377-61.03 60.013-61.03 95.691v51.304h19.51v-42.066h63.61v-18.478h-62.99z"/></mask><path d="M1594.5 71.53l.57-.821-.57-.399-.57.399.57.82zm-46.13 66.281l-1-.132-.15 1.132h1.15v-1zm92.88 60.544h-1v1h1v-1zm19.51 0v1h1v-1h-1zm-61.03-146.994l-.54.84.54-.84zM1594.5 48l.54-.841-.54-.347-.54.346.54.842zm-5.23 3.36l-.54-.841.54.842zm-61.03 146.995h-1v1h1v-1zm19.51 0v1h1v-1h-1zm0-42.066v-1h-1v1h1zm63.61 0v1h1v-1h-1zm0-18.478h1v-1h-1v1zm-17.43-67.102c-26.58 18.525-43.21 41.911-46.56 66.97l1.99.264c3.25-24.334 19.44-47.277 45.71-65.593l-1.14-1.641zm48.32 76.342c0-28.56-17.31-55.524-47.18-76.342l-1.14 1.64c29.53 20.586 46.32 47.01 46.32 74.702h2zm0 51.304v-51.304h-2v51.304h2zm18.51-1h-19.51v2h19.51v-2zm-1-50.304v51.304h2v-51.304h-2zm-60.57-94.85c39.29 25.25 60.57 59.605 60.57 94.85h2c0-36.111-21.8-71.028-61.49-96.532l-1.08 1.683zm-5.23-3.36l5.23 3.36 1.08-1.682-5.23-3.36-1.08 1.682zm-4.15 3.361l5.23-3.36-1.08-1.684-5.23 3.361 1.08 1.683zm-60.57 94.849c0-35.245 21.28-69.6 60.57-94.85l-1.08-1.682c-39.69 25.504-61.49 60.421-61.49 96.532h2zm0 51.304v-51.304h-2v51.304h2zm18.51-1h-19.51v2h19.51v-2zm-1-41.066v42.066h2v-42.066h-2zm1 1h63.61v-2h-63.61v2zm64.61-1v-18.478h-2v18.478h2zm-1-19.478h-62.99v2h62.99v-2z" fill="#949494" mask="url(#e)"/></g><path opacity=".2" d="M1795.5 17.216l9.36-8.156v34.804l.86-.896 25.58-26.645 25.99 26.753.85.884V9.138l9.36 8.062v40.3h-9.66l-26.14-27.288-.37-.379-.36.381-25.83 27.284h-9.64V17.216z" stroke="#949494"/></svg>