<svg width="98" height="36" fill="none" xmlns="http://www.w3.org/2000/svg"><path d="M33.595 16a.138.138 0 00-.14-.14h-.508c-.108 0-.154.078-.154.14v.482c-.526-.668-1.484-.7-1.84-.7-1.16 0-2.24.638-2.24 2.586v2.15c0 1.95 1.08 2.588 2.24 2.588.356 0 1.314-.031 1.84-.7v.482c0 .062.046.14.154.14h.509a.139.139 0 00.139-.14V16zm-.802 4.706c0 1.03-.68 1.654-1.686 1.654-.803 0-1.592-.405-1.592-1.902V18.43c0-1.497.789-1.902 1.592-1.902 1.006 0 1.686.623 1.686 1.652v2.524zM41.028 16a.138.138 0 00-.14-.14h-.508c-.108 0-.154.078-.154.14v.482c-.526-.668-1.484-.7-1.84-.7-1.16 0-2.24.638-2.24 2.587v1.793c0 1.948 1.08 2.585 2.24 2.585.355 0 1.314-.03 1.84-.699v1.214c0 .936-.495 1.638-1.454 1.638-.834 0-1.175-.468-1.391-.936-.031-.062-.047-.14-.155-.14h-.448a.138.138 0 00-.139.14c0 .53.603 1.682 2.133 1.682 1.577 0 2.256-1.058 2.256-2.353V16zm-.802 4.349c0 1.029-.68 1.652-1.686 1.652-.803 0-1.592-.405-1.592-1.902v-1.668c0-1.497.789-1.902 1.592-1.902 1.006 0 1.686.623 1.686 1.652v2.168zm14.772 2.539c0 .062.047.14.14.14h.507c.109 0 .155-.078.155-.14v-4.52c0-1.948-1.08-2.585-2.24-2.585-.355 0-1.314.03-1.84.699V16c0-.062-.046-.14-.154-.14h-.508a.138.138 0 00-.14.14v6.888c0 .062.047.14.14.14h.508c.108 0 .155-.078.155-.14V18.18c0-1.03.68-1.652 1.685-1.652.804 0 1.592.405 1.592 1.901v4.458zm3.276-2.134c0 1.294.802 2.352 2.38 2.352 1.421 0 2.285-.918 2.393-2.025a.139.139 0 00-.139-.14H62.4c-.108 0-.154.078-.154.14-.093.749-.758 1.279-1.593 1.279-.959 0-1.577-.702-1.577-1.637v-2.557c0-.936.618-1.637 1.577-1.637.835 0 1.5.53 1.593 1.278 0 .062.046.14.154.14h.508a.14.14 0 00.14-.14c-.109-1.107-.973-2.024-2.395-2.024-1.577 0-2.379 1.057-2.379 2.351v2.62zm5.609 4.051c-.061 0-.123.047-.123.14v.499c0 .078.062.124.123.124h.387c1.236 0 1.976-.483 1.976-2.369V16a.139.139 0 00-.14-.14H65.6c-.109 0-.155.077-.155.14v6.951c0 .966-.03 1.855-1.452 1.855h-.109zm1.561-11.018c0-.062.046-.14.155-.14h.508c.093 0 .139.078.139.14v1.23c0 .062-.046.14-.14.14H65.6c-.109 0-.155-.078-.155-.14v-1.23zM73.679 16a.138.138 0 00-.14-.14h-.508c-.108 0-.154.078-.154.14v.482c-.526-.668-1.484-.7-1.84-.7-1.16 0-2.24.638-2.24 2.586v2.15c0 1.95 1.08 2.588 2.24 2.588.356 0 1.314-.031 1.84-.7v.482c0 .062.046.14.154.14h.509a.139.139 0 00.139-.14V16zm-.802 4.706c0 1.03-.68 1.654-1.686 1.654-.803 0-1.592-.405-1.592-1.902V18.43c0-1.497.789-1.902 1.592-1.902 1.006 0 1.686.623 1.686 1.652v2.524zM31.85 28.737c-.078 0-.14.078-.155.14l-1.36 6.36-1.189-6.36c-.015-.062-.062-.14-.154-.14h-.51c-.108 0-.155.078-.155.14l1.375 6.888c.016.062.047.14.14.14h.895c.108 0 .155-.078.17-.14l1.19-5.236 1.19 5.236c.015.062.061.14.17.14h.895c.093 0 .124-.078.14-.14l1.374-6.888c0-.062-.046-.14-.154-.14h-.51c-.093 0-.14.078-.155.14l-1.189 6.36-1.36-6.36c-.015-.062-.077-.14-.154-.14h-.494zm9.425 0c-.618 0-1.654.373-2.442 1.541v-1.401c0-.062-.046-.14-.154-.14h-.509a.138.138 0 00-.139.14v6.887c0 .063.047.14.14.14h.508c.108 0 .154-.077.154-.14v-3.086c0-1.995 1.484-3.008 2.442-3.148a.138.138 0 00.139-.14v-.498c0-.108-.078-.155-.14-.155zm4.25-.077c-1.577 0-2.379 1.058-2.379 2.351v2.62c0 1.294.802 2.352 2.38 2.352 1.576 0 2.378-1.058 2.378-2.352v-2.62c0-1.293-.802-2.352-2.379-2.352zm0 6.577c-.959 0-1.577-.702-1.577-1.638v-2.557c0-.935.618-1.637 1.577-1.637s1.577.702 1.577 1.637V33.6c0 .936-.618 1.638-1.577 1.638zm4.698-1.607c0 1.295.802 2.353 2.38 2.353 1.422 0 2.285-.918 2.394-2.025a.139.139 0 00-.14-.14h-.508c-.108 0-.154.078-.154.14-.093.749-.758 1.279-1.593 1.279-.959 0-1.577-.702-1.577-1.638v-2.557c0-.935.618-1.637 1.578-1.637.834 0 1.499.53 1.592 1.279 0 .062.046.14.154.14h.509a.139.139 0 00.139-.14c-.109-1.107-.972-2.025-2.395-2.025-1.577 0-2.379 1.059-2.379 2.352v2.62zm10.831-3.896l-1.808.328v-3.647a.139.139 0 00-.14-.14H58.6c-.109 0-.155.078-.155.14v3.862l-1.375.264a.19.19 0 00-.14.188v.42c0 .078.063.11.109.11l1.406-.265v4.77c0 .063.046.14.155.14h.508a.138.138 0 00.139-.14v-4.986l1.808-.327c.123-.015.139-.109.139-.171v-.421c0-.094-.046-.125-.14-.125zm6.676-.857a.139.139 0 00-.14-.14h-.508c-.108 0-.154.078-.154.14v.482c-.526-.669-1.485-.7-1.84-.7-1.16 0-2.24.638-2.24 2.585v2.151c0 1.95 1.08 2.588 2.24 2.588.355 0 1.314-.031 1.84-.7v.481c0 .063.046.14.154.14h.508c.093 0 .14-.077.14-.14v-6.887zm-.803 4.705c0 1.03-.68 1.655-1.685 1.655-.803 0-1.592-.406-1.592-1.903v-2.027c0-1.496.789-1.902 1.592-1.902 1.006 0 1.685.624 1.685 1.653v2.524zm6.49-4.845c-.077 0-.14.078-.155.14l-1.36 6.36-1.189-6.36c-.015-.062-.061-.14-.154-.14h-.51c-.108 0-.155.078-.155.14l1.376 6.888c.015.062.046.14.139.14h.895c.109 0 .155-.078.17-.14l1.19-5.236 1.19 5.236c.015.062.061.14.17.14h.895c.093 0 .124-.078.14-.14l1.375-6.888c0-.062-.047-.14-.155-.14h-.51c-.093 0-.139.078-.154.14l-1.19 6.36-1.36-6.36c-.015-.062-.077-.14-.154-.14h-.494zm9.257 5.502c0 .904-1.036.998-1.314.998-.542 0-1.361-.25-1.439-1.076 0-.063-.046-.14-.154-.14h-.508a.139.139 0 00-.14.14c.016.78.694 1.822 2.287 1.822.928 0 2.07-.56 2.07-1.744 0-2.012-3.57-2.136-3.57-3.695 0-1.108.99-1.139 1.283-1.139.541 0 1.222.313 1.361 1.2.016.063.046.141.155.141h.508a.138.138 0 00.139-.14c-.108-.78-.74-1.947-2.21-1.947-.973 0-2.038.56-2.038 1.9 0 2.276 3.57 2.027 3.57 3.68zm3.83-1.124v-6.702a.139.139 0 00-.139-.14h-.508c-.108 0-.155.077-.155.14v9.351c0 .063.047.14.155.14h.508c.093 0 .14-.077.14-.14v-1.247l1.854-2.93 1.591 4.177c.016.063.078.14.17.14h.495c.108 0 .154-.077.154-.14l-1.885-4.987 1.19-1.902c0-.062-.046-.14-.155-.14h-.54c-.093 0-.17.094-.201.14l-2.674 4.24zm11.003-4.238a.139.139 0 00-.14-.14h-.508c-.108 0-.154.078-.154.14v.482c-.526-.669-1.484-.7-1.84-.7-1.16 0-2.24.638-2.24 2.585v2.151c0 1.95 1.08 2.588 2.24 2.588.356 0 1.314-.031 1.84-.7v.481c0 .063.046.14.154.14h.508c.093 0 .14-.077.14-.14v-6.887zm-.802 4.705c0 1.03-.68 1.655-1.686 1.655-.803 0-1.592-.406-1.592-1.903v-2.027c0-1.496.789-1.902 1.592-1.902 1.006 0 1.686.624 1.686 1.653v2.524z" fill="#2B2727"/><path fill-rule="evenodd" clip-rule="evenodd" d="M9.85 3.65c-4.1 2.846-6.452 6.52-6.452 10.39v7.058H.705V14.04c0-4.91 2.973-9.674 8.423-13.166L9.85.412l.722.462c5.45 3.492 8.423 8.257 8.423 13.165v7.059h-2.693V14.04c0-3.87-2.353-7.543-6.452-10.39zM.672 35.908V25.51l2.604-2.29v8.789l6.522-6.85 6.626 6.877v-8.794l2.604 2.263v10.403H16.42L9.81 28.95l-6.533 6.957H.672z" fill="#F63D37"/><path d="M12.177 12.768H1.945v2.542h10.232v-2.542z" fill="#F63D37"/><path d="M44.38 18.15v2.572c0 .936.619 1.638 1.578 1.638.834 0 1.298-.468 1.515-.936.03-.062.046-.14.154-.14h.447c.093 0 .139.078.139.14 0 .53-.725 1.682-2.255 1.682-1.577 0-2.38-1.058-2.38-2.353V18.12c0-1.467 1.019-2.338 2.395-2.338 1.407 0 2.394.84 2.394 2.338v1.448c0 .063-.046.14-.139.14h-2.904a.145.145 0 01-.145-.146v-.438a.15.15 0 01.042-.104.147.147 0 01.103-.042h2.242v-.827c0-.936-.619-1.622-1.608-1.622-.944 0-1.577.686-1.577 1.622z" fill="#2B2727"/></svg>