<svg width="116" height="225" fill="none" xmlns="http://www.w3.org/2000/svg"><path fill-rule="evenodd" clip-rule="evenodd" d="M0 224.516v-65.769l16.455-14.479v55.585l41.22-43.328 41.87 43.499v-55.618L116 158.718v65.798H99.522L57.74 180.508l-41.285 44.005H0v.003zM17.763 78.155c2.875-21.491 17.19-41.65 40.237-57.68C83.904 38.49 98.777 61.72 98.777 86.196v44.646h17.017V86.196c0-31.048-18.788-61.189-53.23-83.272L58.003 0l-4.567 2.924C18.994 25.007.206 55.148.206 86.196v44.645h17.02V94.235h55.481v-16.08H17.763z" fill="#F63D37"/></svg>