<svg width="1896" height="739" viewBox="0 0 1896 739" fill="none" xmlns="http://www.w3.org/2000/svg">
<path opacity="0.2" d="M35.5 703.406L52.941 688.036V749.318V750.571L53.8035 749.663L99.637 701.41L146.199 749.857L147.059 750.752V749.51V688.182L164.5 703.375V776.5H146.749L100.071 727.261L99.7063 726.876L99.3435 727.263L53.2242 776.496H35.5V703.406Z" stroke="#949494"/>
<g opacity="0.2">
<mask id="path-2-inside-1_104_845" fill="white">
<path fill-rule="evenodd" clip-rule="evenodd" d="M54.9063 612.722C58.1284 588.6 74.1716 565.974 99.9997 547.982C129.03 568.202 145.698 594.276 145.698 621.747V671.858H164.769V621.747C164.769 586.899 143.713 553.069 105.114 528.282L100.003 525L94.885 528.282C56.2861 553.069 35.23 586.899 35.23 621.747V671.858H54.3048V630.77H116.482V612.722H54.9063Z"/>
</mask>
<path d="M99.9997 547.982L100.571 547.162L99.9997 546.763L99.4281 547.162L99.9997 547.982ZM54.9063 612.722L53.9151 612.59L53.7638 613.722H54.9063V612.722ZM145.698 671.858H144.698V672.858H145.698V671.858ZM164.769 671.858V672.858H165.769V671.858H164.769ZM105.114 528.282L104.574 529.124L104.574 529.124L105.114 528.282ZM100.003 525L100.544 524.159L100.004 523.812L99.4634 524.158L100.003 525ZM94.885 528.282L94.3451 527.441L94.3446 527.441L94.885 528.282ZM35.23 671.858H34.23V672.858H35.23V671.858ZM54.3048 671.858V672.858H55.3048V671.858H54.3048ZM54.3048 630.77V629.77H53.3048V630.77H54.3048ZM116.482 630.77V631.77H117.482V630.77H116.482ZM116.482 612.722H117.482V611.722H116.482V612.722ZM99.4281 547.162C73.4504 565.258 57.1857 588.105 53.9151 612.59L55.8975 612.855C59.0712 589.095 74.8927 566.69 100.571 548.803L99.4281 547.162ZM146.698 621.747C146.698 593.841 129.768 567.498 100.571 547.162L99.4282 548.803C128.292 568.907 144.698 594.71 144.698 621.747H146.698ZM146.698 671.858V621.747H144.698V671.858H146.698ZM164.769 670.858H145.698V672.858H164.769V670.858ZM163.769 621.747V671.858H165.769V621.747H163.769ZM104.574 529.124C142.975 553.783 163.769 587.332 163.769 621.747H165.769C165.769 586.466 144.452 552.354 105.655 527.441L104.574 529.124ZM99.4629 525.841L104.574 529.124L105.655 527.441L100.544 524.159L99.4629 525.841ZM95.4248 529.124L100.543 525.842L99.4634 524.158L94.3451 527.441L95.4248 529.124ZM36.23 621.747C36.23 587.332 57.0248 553.783 95.4253 529.124L94.3446 527.441C55.5474 552.354 34.23 586.466 34.23 621.747H36.23ZM36.23 671.858V621.747H34.23V671.858H36.23ZM54.3048 670.858H35.23V672.858H54.3048V670.858ZM53.3048 630.77V671.858H55.3048V630.77H53.3048ZM54.3048 631.77H116.482V629.77H54.3048V631.77ZM117.482 630.77V612.722H115.482V630.77H117.482ZM116.482 611.722H54.9063V613.722H116.482V611.722Z" fill="#949494" mask="url(#path-2-inside-1_104_845)"/>
</g>
<path opacity="0.2" d="M0.5 -61.5463L39.219 -95.6186V37.4622V38.7133L40.0813 37.8068L139.216 -66.4125L239.921 38.222L240.781 39.1159V37.8753V-95.2938L279.5 -61.615V96.4999H240.441L139.735 -9.58343L139.37 -9.96769L139.007 -9.58126L39.5025 96.4923H0.5V-61.5463Z" stroke="#949494"/>
<path opacity="0.2" d="M856.5 208.576L880.892 187.08V271.883V273.135L881.754 272.227L944.999 205.641L1009.25 272.494L1010.11 273.389V272.147V187.285L1034.5 208.533V309.5H1009.79L945.461 241.639L945.096 241.254L944.734 241.642L881.175 309.495H856.5V208.576Z" stroke="#949494"/>
<g opacity="0.2">
<mask id="path-6-inside-2_104_845" fill="white">
<path fill-rule="evenodd" clip-rule="evenodd" d="M883.409 83.7924C887.846 50.5765 909.936 19.4207 945.5 -5.35404C985.472 22.4889 1008.42 58.3913 1008.42 96.2198V165.221H1034.68V96.2198C1034.68 48.234 1005.69 1.64996 952.542 -32.4802L945.504 -37L938.457 -32.4802C885.309 1.64996 856.317 48.234 856.317 96.2198V165.221H882.581V108.644H968.194V83.7924H883.409Z"/>
</mask>
<path d="M945.5 -5.35404L946.071 -6.17459L945.5 -6.57274L944.928 -6.17456L945.5 -5.35404ZM883.409 83.7924L882.418 83.66L882.267 84.7924H883.409V83.7924ZM1008.42 165.221H1007.42V166.221H1008.42V165.221ZM1034.68 165.221V166.221H1035.68V165.221H1034.68ZM952.542 -32.4802L952.002 -31.6388L952.002 -31.6388L952.542 -32.4802ZM945.504 -37L946.045 -37.8414L945.505 -38.1882L944.965 -37.8418L945.504 -37ZM938.457 -32.4802L937.917 -33.322L937.917 -33.3216L938.457 -32.4802ZM856.317 165.221H855.317V166.221H856.317V165.221ZM882.581 165.221V166.221H883.581V165.221H882.581ZM882.581 108.644V107.644H881.581V108.644H882.581ZM968.194 108.644V109.644H969.194V108.644H968.194ZM968.194 83.7924H969.194V82.7924H968.194V83.7924ZM944.928 -6.17456C909.215 18.7043 886.903 50.0816 882.418 83.66L884.401 83.9248C888.789 51.0714 910.657 20.137 946.071 -4.53351L944.928 -6.17456ZM1009.42 96.2198C1009.42 57.9569 986.21 21.7841 946.071 -6.17459L944.928 -4.53348C984.734 23.1936 1007.42 58.8258 1007.42 96.2198H1009.42ZM1009.42 165.221V96.2198H1007.42V165.221H1009.42ZM1034.68 164.221H1008.42V166.221H1034.68V164.221ZM1033.68 96.2198V165.221H1035.68V96.2198H1033.68ZM952.002 -31.6388C1004.95 2.36402 1033.68 48.6673 1033.68 96.2198H1035.68C1035.68 47.8006 1006.43 0.935898 953.083 -33.3216L952.002 -31.6388ZM944.964 -36.1586L952.002 -31.6388L953.083 -33.3216L946.045 -37.8414L944.964 -36.1586ZM938.997 -31.6384L946.044 -36.1582L944.965 -37.8418L937.917 -33.322L938.997 -31.6384ZM857.317 96.2198C857.317 48.6673 886.048 2.36402 938.997 -31.6388L937.917 -33.3216C884.571 0.935898 855.317 47.8006 855.317 96.2198H857.317ZM857.317 165.221V96.2198H855.317V165.221H857.317ZM882.581 164.221H856.317V166.221H882.581V164.221ZM881.581 108.644V165.221H883.581V108.644H881.581ZM882.581 109.644H968.194V107.644H882.581V109.644ZM969.194 108.644V83.7924H967.194V108.644H969.194ZM968.194 82.7924H883.409V84.7924H968.194V82.7924Z" fill="#949494" mask="url(#path-6-inside-2_104_845)"/>
</g>
<path opacity="0.2" d="M683.5 641.537L698.104 628.621V680.492V681.748L698.967 680.836L737.693 639.919L777.035 681.001L777.896 681.901V680.656V628.744L792.5 641.511V703.5H777.59L738.117 661.71L737.751 661.323L737.388 661.712L698.387 703.497H683.5V641.537Z" stroke="#949494"/>
<g opacity="0.2">
<mask id="path-9-inside-3_104_845" fill="white">
<path fill-rule="evenodd" clip-rule="evenodd" d="M699.844 564.494C702.57 544.01 716.145 524.795 738 509.517C762.564 526.688 776.668 548.829 776.668 572.159V614.713H792.805V572.159C792.805 542.565 774.988 513.836 742.328 492.787L738.003 490L733.672 492.787C701.011 513.836 683.195 542.565 683.195 572.159V614.713H699.335V579.821H751.946V564.494H699.844Z"/>
</mask>
<path d="M738 509.517L738.573 508.697L738 508.296L737.427 508.697L738 509.517ZM699.844 564.494L698.852 564.363L698.702 565.494H699.844V564.494ZM776.668 614.713H775.668V615.713H776.668V614.713ZM792.805 614.713V615.713H793.805V614.713H792.805ZM742.328 492.787L741.786 493.628L741.786 493.628L742.328 492.787ZM738.003 490L738.544 489.159L738.003 488.811L737.461 489.159L738.003 490ZM733.672 492.787L733.131 491.947L733.13 491.947L733.672 492.787ZM683.195 614.713H682.195V615.713H683.195V614.713ZM699.335 614.713V615.713H700.335V614.713H699.335ZM699.335 579.821V578.821H698.335V579.821H699.335ZM751.946 579.821V580.821H752.946V579.821H751.946ZM751.946 564.494H752.946V563.494H751.946V564.494ZM737.427 508.697C715.422 524.081 701.627 543.516 698.852 564.363L700.835 564.626C703.513 544.503 716.868 525.51 738.573 510.336L737.427 508.697ZM777.668 572.159C777.668 548.396 763.303 525.985 738.573 508.697L737.427 510.336C761.824 527.391 775.668 549.262 775.668 572.159H777.668ZM777.668 614.713V572.159H775.668V614.713H777.668ZM792.805 613.713H776.668V615.713H792.805V613.713ZM791.805 572.159V614.713H793.805V572.159H791.805ZM741.786 493.628C774.248 514.548 791.805 542.997 791.805 572.159H793.805C793.805 542.133 775.729 513.124 742.869 491.947L741.786 493.628ZM737.461 490.841L741.786 493.628L742.869 491.947L738.544 489.159L737.461 490.841ZM734.213 493.628L738.544 490.841L737.461 489.159L733.131 491.947L734.213 493.628ZM684.195 572.159C684.195 542.997 701.752 514.548 734.214 493.628L733.13 491.947C700.271 513.124 682.195 542.133 682.195 572.159H684.195ZM684.195 614.713V572.159H682.195V614.713H684.195ZM699.335 613.713H683.195V615.713H699.335V613.713ZM698.335 579.821V614.713H700.335V579.821H698.335ZM699.335 580.821H751.946V578.821H699.335V580.821ZM752.946 579.821V564.494H750.946V579.821H752.946ZM751.946 563.494H699.844V565.494H751.946V563.494Z" fill="#949494" mask="url(#path-9-inside-3_104_845)"/>
</g>
<path opacity="0.2" d="M1624.5 718.443L1666.2 681.728V824.959V826.21L1667.06 825.303L1773.66 713.172L1881.94 825.75L1882.8 826.644V825.403V682.078L1924.5 718.369V888.5H1882.46L1774.19 774.38L1773.82 773.996L1773.46 774.382L1666.48 888.492H1624.5V718.443Z" stroke="#949494"/>
<g opacity="0.2">
<mask id="path-12-inside-4_104_845" fill="white">
<path fill-rule="evenodd" clip-rule="evenodd" d="M1670.09 508.945C1677.55 453.139 1714.7 400.793 1774.5 359.169C1841.72 405.948 1880.31 466.268 1880.31 529.825V645.755H1924.47V529.825C1924.47 449.203 1875.71 370.936 1786.34 313.594L1774.51 306L1762.66 313.594C1673.29 370.936 1624.53 449.203 1624.53 529.825V645.755H1668.7V550.699H1812.66V508.945H1670.09Z"/>
</mask>
<path d="M1774.5 359.169L1775.07 358.348L1774.5 357.951L1773.93 358.348L1774.5 359.169ZM1670.09 508.945L1669.1 508.813L1668.95 509.945H1670.09V508.945ZM1880.31 645.755H1879.31V646.755H1880.31V645.755ZM1924.47 645.755V646.755H1925.47V645.755H1924.47ZM1786.34 313.594L1785.8 314.435L1785.8 314.435L1786.34 313.594ZM1774.51 306L1775.05 305.158L1774.51 304.812L1773.97 305.158L1774.51 306ZM1762.66 313.594L1762.12 312.752L1762.12 312.752L1762.66 313.594ZM1624.53 645.755H1623.53V646.755H1624.53V645.755ZM1668.7 645.755V646.755H1669.7V645.755H1668.7ZM1668.7 550.699V549.699H1667.7V550.699H1668.7ZM1812.66 550.699V551.699H1813.66V550.699H1812.66ZM1812.66 508.945H1813.66V507.945H1812.66V508.945ZM1773.93 358.348C1713.98 400.076 1676.61 452.643 1669.1 508.813L1671.08 509.078C1678.49 453.634 1715.42 401.51 1775.07 359.99L1773.93 358.348ZM1881.31 529.825C1881.31 465.834 1842.45 405.243 1775.07 358.348L1773.93 359.99C1840.98 406.653 1879.31 466.703 1879.31 529.825H1881.31ZM1881.31 645.755V529.825H1879.31V645.755H1881.31ZM1924.47 644.755H1880.31V646.755H1924.47V644.755ZM1923.47 529.825V645.755H1925.47V529.825H1923.47ZM1785.8 314.435C1874.97 371.651 1923.47 449.637 1923.47 529.825H1925.47C1925.47 448.769 1876.45 370.222 1786.88 312.752L1785.8 314.435ZM1773.97 306.842L1785.8 314.435L1786.88 312.752L1775.05 305.158L1773.97 306.842ZM1763.2 314.436L1775.05 306.842L1773.97 305.158L1762.12 312.752L1763.2 314.436ZM1625.53 529.825C1625.53 449.637 1674.02 371.651 1763.2 314.435L1762.12 312.752C1672.55 370.222 1623.53 448.769 1623.53 529.825H1625.53ZM1625.53 645.755V529.825H1623.53V645.755H1625.53ZM1668.7 644.755H1624.53V646.755H1668.7V644.755ZM1667.7 550.699V645.755H1669.7V550.699H1667.7ZM1668.7 551.699H1812.66V549.699H1668.7V551.699ZM1813.66 550.699V508.945H1811.66V550.699H1813.66ZM1812.66 507.945H1670.09V509.945H1812.66V507.945Z" fill="#949494" mask="url(#path-12-inside-4_104_845)"/>
</g>
<path opacity="0.2" d="M1528.5 230.648L1546.37 214.892V277.659V278.912L1547.23 278.003L1594.13 228.593L1641.77 278.202L1642.63 279.098V277.856V215.042L1660.5 230.616V305.5H1642.32L1594.56 255.085L1594.2 254.699L1593.84 255.087L1546.65 305.496H1528.5V230.648Z" stroke="#949494"/>
<g opacity="0.2">
<mask id="path-15-inside-5_104_845" fill="white">
<path fill-rule="evenodd" clip-rule="evenodd" d="M1548.37 137.811C1551.66 113.115 1568.08 89.9496 1594.5 71.5293C1624.2 92.2309 1641.25 118.925 1641.25 147.051V198.355H1660.76V147.051C1660.76 111.373 1639.22 76.7369 1599.73 51.3605L1594.5 48L1589.27 51.3605C1549.78 76.7369 1528.24 111.373 1528.24 147.051V198.355H1547.75V156.289H1611.36V137.811H1548.37Z"/>
</mask>
<path d="M1594.5 71.5293L1595.07 70.7089L1594.5 70.3103L1593.93 70.7089L1594.5 71.5293ZM1548.37 137.811L1547.37 137.679L1547.22 138.811H1548.37V137.811ZM1641.25 198.355H1640.25V199.355H1641.25V198.355ZM1660.76 198.355V199.355H1661.76V198.355H1660.76ZM1599.73 51.3605L1599.19 52.2018L1599.19 52.2018L1599.73 51.3605ZM1594.5 48L1595.04 47.1587L1594.5 46.8115L1593.96 47.1584L1594.5 48ZM1589.27 51.3605L1588.73 50.519L1588.73 50.5193L1589.27 51.3605ZM1528.24 198.355H1527.24V199.355H1528.24V198.355ZM1547.75 198.355V199.355H1548.75V198.355H1547.75ZM1547.75 156.289V155.289H1546.75V156.289H1547.75ZM1611.36 156.289V157.289H1612.36V156.289H1611.36ZM1611.36 137.811H1612.36V136.811H1611.36V137.811ZM1593.93 70.7089C1567.35 89.2336 1550.72 112.62 1547.37 137.679L1549.36 137.943C1552.61 113.609 1568.8 90.6657 1595.07 72.3496L1593.93 70.7089ZM1642.25 147.051C1642.25 118.491 1624.94 91.5265 1595.07 70.7089L1593.93 72.3497C1623.46 92.9353 1640.25 119.359 1640.25 147.051H1642.25ZM1642.25 198.355V147.051H1640.25V198.355H1642.25ZM1660.76 197.355H1641.25V199.355H1660.76V197.355ZM1659.76 147.051V198.355H1661.76V147.051H1659.76ZM1599.19 52.2018C1638.48 77.4506 1659.76 111.806 1659.76 147.051H1661.76C1661.76 110.94 1639.96 76.0231 1600.27 50.5193L1599.19 52.2018ZM1593.96 48.8413L1599.19 52.2018L1600.27 50.5193L1595.04 47.1587L1593.96 48.8413ZM1589.81 52.2021L1595.04 48.8416L1593.96 47.1584L1588.73 50.519L1589.81 52.2021ZM1529.24 147.051C1529.24 111.806 1550.52 77.4506 1589.81 52.2018L1588.73 50.5193C1549.04 76.0231 1527.24 110.94 1527.24 147.051H1529.24ZM1529.24 198.355V147.051H1527.24V198.355H1529.24ZM1547.75 197.355H1528.24V199.355H1547.75V197.355ZM1546.75 156.289V198.355H1548.75V156.289H1546.75ZM1547.75 157.289H1611.36V155.289H1547.75V157.289ZM1612.36 156.289V137.811H1610.36V156.289H1612.36ZM1611.36 136.811H1548.37V138.811H1611.36V136.811Z" fill="#949494" mask="url(#path-15-inside-5_104_845)"/>
</g>
<path opacity="0.2" d="M1795.5 17.2161L1804.86 9.05972V42.6213V43.864L1805.72 42.9675L1831.3 16.3231L1857.29 43.0764L1858.14 43.9602V42.728V9.13745L1867.5 17.1997V57.5H1857.84L1831.7 30.2122L1831.33 29.8332L1830.97 30.2144L1805.14 57.498H1795.5V17.2161Z" stroke="#949494"/>
</svg>
