<svg width="116" height="225" viewBox="0 0 116 225" fill="none" xmlns="http://www.w3.org/2000/svg">
<path fill-rule="evenodd" clip-rule="evenodd" d="M0 224.516V158.747L16.455 144.268V199.853L57.6742 156.525L99.545 200.024V144.406L116 158.718V224.516H99.5223L57.7398 180.508L16.455 224.513H0V224.516Z" fill="#F63D37"/>
<path fill-rule="evenodd" clip-rule="evenodd" d="M17.7626 78.1551C20.6378 56.6638 34.9532 36.5053 57.9999 20.4756C83.9038 38.4905 98.7769 61.7201 98.7769 86.1959V130.841H115.794V86.1959C115.794 55.1481 97.0058 25.0073 62.5638 2.92441L58.003 0L53.4359 2.92441C18.9939 25.0073 0.205322 55.1481 0.205322 86.1959V130.841H17.226V94.2346H72.707V78.1551H17.7626Z" fill="#F63D37"/>
</svg>
