<svg width="98" height="36" viewBox="0 0 98 36" fill="none" xmlns="http://www.w3.org/2000/svg">
<path d="M33.5948 16.0001C33.5948 15.9378 33.5484 15.8604 33.4557 15.8604H32.9474C32.8392 15.8604 32.7928 15.9378 32.7928 16.0001V16.4817C32.2675 15.8136 31.3088 15.7825 30.9529 15.7825C29.7934 15.7825 28.7134 16.4199 28.7134 18.3676V20.5185C28.7134 22.4684 29.7934 23.1058 30.9529 23.1058C31.3088 23.1058 32.2675 23.0746 32.7928 22.4065V22.8876C32.7928 22.9499 32.8392 23.0279 32.9474 23.0279H33.4557C33.5484 23.0279 33.5948 22.9499 33.5948 22.8876V16.0001ZM32.7928 20.7055C32.7928 21.7363 32.1129 22.3598 31.1074 22.3598C30.3039 22.3598 29.5153 21.9545 29.5153 20.4578V18.4305C29.5153 16.9342 30.3039 16.5285 31.1074 16.5285C32.1129 16.5285 32.7928 17.1524 32.7928 18.1811V20.7055Z" fill="#2B2727"/>
<path d="M41.0275 16.0001C41.0275 15.9378 40.9812 15.8604 40.8884 15.8604H40.3801C40.2719 15.8604 40.2256 15.9378 40.2256 16.0001V16.4817C39.7002 15.8136 38.7415 15.7825 38.3856 15.7825C37.2262 15.7825 36.1461 16.4199 36.1461 18.3686V20.1615C36.1461 22.1098 37.2262 22.7473 38.3856 22.7473C38.7415 22.7473 39.7002 22.7161 40.2256 22.0481V23.2621C40.2256 24.1983 39.7311 24.9003 38.7724 24.9003C37.9375 24.9003 37.597 24.4321 37.3807 23.964C37.3498 23.9017 37.3344 23.8237 37.2262 23.8237H36.7781C36.6858 23.8237 36.6395 23.9017 36.6395 23.964C36.6395 24.4944 37.2416 25.6463 38.7724 25.6463C40.3492 25.6463 41.0275 24.588 41.0275 23.2933V16.0001ZM40.2256 20.3486C40.2256 21.3779 39.5457 22.0013 38.5401 22.0013C37.7366 22.0013 36.948 21.5961 36.948 20.0992V18.431C36.948 16.9342 37.7366 16.5285 38.5401 16.5285C39.5457 16.5285 40.2256 17.1524 40.2256 18.1811V20.3486Z" fill="#2B2727"/>
<path d="M54.9982 22.8876C54.9982 22.9499 55.0445 23.0279 55.1372 23.0279H55.6451C55.7537 23.0279 55.8001 22.9499 55.8001 22.8876V18.3676C55.8001 16.4199 54.72 15.7825 53.5605 15.7825C53.2046 15.7825 52.246 15.8136 51.7206 16.4817V16.0001C51.7206 15.9378 51.6743 15.8604 51.5661 15.8604H51.0578C50.9651 15.8604 50.9187 15.9378 50.9187 16.0001V22.8876C50.9187 22.9499 50.9651 23.0279 51.0578 23.0279H51.5661C51.6743 23.0279 51.7206 22.9499 51.7206 22.8876V18.1806C51.7206 17.1519 52.4005 16.5285 53.4059 16.5285C54.2101 16.5285 54.9982 16.9337 54.9982 18.43V22.8876Z" fill="#2B2727"/>
<path d="M58.2742 20.7539C58.2742 22.0481 59.0761 23.1058 60.6532 23.1058C62.0755 23.1058 62.9392 22.1883 63.0474 21.0811C63.0474 21.0188 63.001 20.9408 62.9083 20.9408H62.4C62.2918 20.9408 62.2455 21.0188 62.2455 21.0811C62.1528 21.8299 61.4877 22.3598 60.6532 22.3598C59.6942 22.3598 59.0761 21.6584 59.0761 20.7227V18.1655C59.0761 17.2304 59.6942 16.5285 60.6532 16.5285C61.4877 16.5285 62.1528 17.0589 62.2455 17.807C62.2455 17.8694 62.2918 17.9473 62.4 17.9473H62.9083C63.001 17.9473 63.0474 17.8694 63.0474 17.807C62.9392 16.6999 62.0755 15.7825 60.6532 15.7825C59.0761 15.7825 58.2742 16.8402 58.2742 18.1343V20.7539Z" fill="#2B2727"/>
<path d="M63.8834 24.8047C63.8216 24.8047 63.7598 24.8515 63.7598 24.945V25.4437C63.7598 25.5217 63.8216 25.5684 63.8834 25.5684H64.2697C65.5059 25.5684 66.246 25.0852 66.246 23.1993V15.9986C66.246 15.9362 66.1997 15.8583 66.1069 15.8583H65.5986C65.4905 15.8583 65.4441 15.9362 65.4441 15.9986V22.95C65.4441 23.9163 65.4132 24.8047 63.9916 24.8047H63.8834ZM65.4441 13.7875C65.4441 13.7251 65.4905 13.6472 65.5986 13.6472H66.1069C66.1997 13.6472 66.246 13.7251 66.246 13.7875V15.0172C66.246 15.079 66.1997 15.1569 66.1069 15.1569H65.5986C65.4905 15.1569 65.4441 15.079 65.4441 15.0172V13.7875Z" fill="#2B2727"/>
<path d="M73.6786 16.0001C73.6786 15.9378 73.6323 15.8604 73.5396 15.8604H73.0312C72.9231 15.8604 72.8767 15.9378 72.8767 16.0001V16.4817C72.3513 15.8136 71.3927 15.7825 71.0367 15.7825C69.8773 15.7825 68.7972 16.4199 68.7972 18.3676V20.5185C68.7972 22.4684 69.8773 23.1058 71.0367 23.1058C71.3927 23.1058 72.3513 23.0746 72.8767 22.4065V22.8876C72.8767 22.9499 72.9231 23.0279 73.0312 23.0279H73.5396C73.6323 23.0279 73.6786 22.9499 73.6786 22.8876V16.0001ZM72.8767 20.7055C72.8767 21.7363 72.1968 22.3598 71.1913 22.3598C70.3877 22.3598 69.5992 21.9545 69.5992 20.4578V18.4305C69.5992 16.9342 70.3877 16.5285 71.1913 16.5285C72.1968 16.5285 72.8767 17.1524 72.8767 18.1811V20.7055Z" fill="#2B2727"/>
<path d="M31.8497 28.7371C31.7724 28.7371 31.7106 28.815 31.6952 28.8772L30.3354 35.2364L29.1461 28.8772C29.1307 28.815 29.0843 28.7371 28.9916 28.7371H28.4817C28.3735 28.7371 28.3271 28.815 28.3271 28.8772L29.7024 35.7647C29.7179 35.8271 29.7488 35.9045 29.8415 35.9045H30.7371C30.8453 35.9045 30.8917 35.8271 30.9071 35.7647L32.0965 30.5293L33.2863 35.7647C33.3018 35.8271 33.3481 35.9045 33.4563 35.9045H34.352C34.4447 35.9045 34.4757 35.8271 34.4911 35.7647L35.8664 28.8772C35.8664 28.815 35.82 28.7371 35.7119 28.7371H35.2019C35.1092 28.7371 35.0628 28.815 35.0474 28.8772L33.858 35.2364L32.4982 28.8772C32.4828 28.815 32.421 28.7371 32.3437 28.7371H31.8497Z" fill="#2B2727"/>
<path d="M41.2747 28.7371C40.6566 28.7371 39.6213 29.11 38.8332 30.278V28.8767C38.8332 28.815 38.7868 28.7371 38.6786 28.7371H38.1703C38.0776 28.7371 38.0312 28.815 38.0312 28.8767V35.7642C38.0312 35.8266 38.0776 35.9045 38.1703 35.9045H38.6786C38.7868 35.9045 38.8332 35.8266 38.8332 35.7642V32.6782C38.8332 30.6832 40.3166 29.6701 41.2747 29.5298C41.3365 29.5298 41.4137 29.4831 41.4137 29.3901V28.8923C41.4137 28.7838 41.3365 28.7371 41.2747 28.7371Z" fill="#2B2727"/>
<path d="M45.5252 28.6592C43.948 28.6592 43.1461 29.7175 43.1461 31.0112V33.6306C43.1461 34.9249 43.948 35.9826 45.5252 35.9826C47.102 35.9826 47.9039 34.9249 47.9039 33.6306V31.0112C47.9039 29.7175 47.102 28.6592 45.5252 28.6592ZM45.5252 35.2366C44.5661 35.2366 43.948 34.5346 43.948 33.5995V31.0423C43.948 30.1072 44.5661 29.4053 45.5252 29.4053C46.4839 29.4053 47.102 30.1072 47.102 31.0423V33.5995C47.102 34.5346 46.4839 35.2366 45.5252 35.2366Z" fill="#2B2727"/>
<path d="M50.2234 33.6306C50.2234 34.9249 51.0253 35.9826 52.6025 35.9826C54.0247 35.9826 54.8884 35.065 54.9966 33.9579C54.9966 33.8956 54.9503 33.8177 54.8575 33.8177H54.3492C54.241 33.8177 54.1947 33.8956 54.1947 33.9579C54.102 34.7067 53.4369 35.2366 52.6025 35.2366C51.6434 35.2366 51.0253 34.5346 51.0253 33.5995V31.0423C51.0253 30.1072 51.6434 29.4053 52.6025 29.4053C53.4369 29.4053 54.102 29.9352 54.1947 30.6839C54.1947 30.7462 54.241 30.8241 54.3492 30.8241H54.8575C54.9503 30.8241 54.9966 30.7462 54.9966 30.6839C54.8884 29.5768 54.0247 28.6592 52.6025 28.6592C51.0253 28.6592 50.2234 29.7175 50.2234 31.0112V33.6306Z" fill="#2B2727"/>
<path d="M61.0539 29.7341L59.246 30.0619V26.4149C59.246 26.3525 59.1996 26.2747 59.1069 26.2747H58.5986C58.4904 26.2747 58.444 26.3525 58.444 26.4149V30.277L57.0688 30.5415C57.007 30.5571 56.9297 30.6194 56.9297 30.7285V31.1493C56.9297 31.2273 56.9915 31.2584 57.0379 31.2584L58.444 30.9935V35.7644C58.444 35.8268 58.4904 35.9047 58.5986 35.9047H59.1069C59.1996 35.9047 59.246 35.8268 59.246 35.7644V30.7784L61.0539 30.4511C61.1775 30.4355 61.193 30.342 61.193 30.2796V29.8588C61.193 29.7653 61.1466 29.7341 61.0539 29.7341Z" fill="#2B2727"/>
<path d="M67.7294 28.8769C67.7294 28.8145 67.6831 28.7366 67.5903 28.7366H67.082C66.9738 28.7366 66.9275 28.8145 66.9275 28.8769V29.3586C66.4021 28.6905 65.4434 28.6592 65.0875 28.6592C63.9281 28.6592 62.848 29.2967 62.848 31.2445V33.3953C62.848 35.3451 63.9281 35.9826 65.0875 35.9826C65.4434 35.9826 66.4021 35.9515 66.9275 35.2832V35.7644C66.9275 35.8268 66.9738 35.9047 67.082 35.9047H67.5903C67.6831 35.9047 67.7294 35.8268 67.7294 35.7644V28.8769ZM66.9275 33.5824C66.9275 34.6125 66.2476 35.2366 65.2421 35.2366C64.4385 35.2366 63.6499 34.8314 63.6499 33.3345V31.3073C63.6499 29.8111 64.4385 29.4053 65.2421 29.4053C66.2476 29.4053 66.9275 30.0293 66.9275 31.0579V33.5824Z" fill="#2B2727"/>
<path d="M73.417 28.7371C73.3397 28.7371 73.2779 28.815 73.2624 28.8772L71.9026 35.2364L70.7134 28.8772C70.6979 28.815 70.6516 28.7371 70.5589 28.7371H70.0489C69.9408 28.7371 69.8944 28.815 69.8944 28.8772L71.2697 35.7647C71.2851 35.8271 71.316 35.9045 71.4088 35.9045H72.3044C72.4126 35.9045 72.4589 35.8271 72.4744 35.7647L73.6637 30.5293L74.8536 35.7647C74.869 35.8271 74.9154 35.9045 75.0235 35.9045H75.9193C76.012 35.9045 76.0429 35.8271 76.0584 35.7647L77.4336 28.8772C77.4336 28.815 77.3873 28.7371 77.2791 28.7371H76.7692C76.6765 28.7371 76.6301 28.815 76.6147 28.8772L75.4253 35.2364L74.0655 28.8772C74.05 28.815 73.9882 28.7371 73.911 28.7371H73.417Z" fill="#2B2727"/>
<path d="M82.6737 34.2385C82.6737 35.1431 81.6377 35.2366 81.3596 35.2366C80.8182 35.2366 79.9988 34.9871 79.9215 34.1606C79.9215 34.0982 79.8751 34.0203 79.767 34.0203H79.2587C79.1659 34.0203 79.1196 34.0982 79.1196 34.1606C79.135 34.9404 79.8133 35.9826 81.4059 35.9826C82.3337 35.9826 83.4756 35.423 83.4756 34.2385C83.4756 32.2274 79.9061 32.1027 79.9061 30.5436C79.9061 29.4365 80.8955 29.4053 81.1891 29.4053C81.7304 29.4053 82.411 29.7175 82.55 30.6059C82.5655 30.6683 82.5964 30.7462 82.7046 30.7462H83.2134C83.3056 30.7462 83.352 30.6683 83.352 30.6059C83.2443 29.8261 82.6119 28.6592 81.1428 28.6592C80.1687 28.6592 79.1041 29.2188 79.1041 30.5592C79.1041 32.8352 82.6737 32.5859 82.6737 34.2385Z" fill="#2B2727"/>
<path d="M86.5043 33.1147V26.4127C86.5043 26.3504 86.458 26.2725 86.3652 26.2725H85.8569C85.7488 26.2725 85.7024 26.3504 85.7024 26.4127V35.7644C85.7024 35.8267 85.7488 35.9046 85.8569 35.9046H86.3652C86.458 35.9046 86.5043 35.8267 86.5043 35.7644V34.5175L88.3586 31.5873L89.9502 35.7644C89.9657 35.8267 90.0275 35.9046 90.1202 35.9046H90.6147C90.7229 35.9046 90.7692 35.8267 90.7692 35.7644L88.884 30.7768L90.0739 28.8753C90.0739 28.813 90.0275 28.7351 89.9193 28.7351H89.3785C89.2858 28.7351 89.2085 28.8286 89.1776 28.8753L86.5043 33.1147Z" fill="#2B2727"/>
<path d="M97.5065 28.8769C97.5065 28.8145 97.4602 28.7366 97.3674 28.7366H96.8591C96.7509 28.7366 96.7046 28.8145 96.7046 28.8769V29.3586C96.1792 28.6905 95.2205 28.6592 94.8646 28.6592C93.7052 28.6592 92.6251 29.2967 92.6251 31.2445V33.3953C92.6251 35.3451 93.7052 35.9826 94.8646 35.9826C95.2205 35.9826 96.1792 35.9515 96.7046 35.2832V35.7644C96.7046 35.8268 96.7509 35.9047 96.8591 35.9047H97.3674C97.4602 35.9047 97.5065 35.8268 97.5065 35.7644V28.8769ZM96.7046 33.5824C96.7046 34.6125 96.0247 35.2366 95.0192 35.2366C94.2156 35.2366 93.427 34.8314 93.427 33.3345V31.3073C93.427 29.8111 94.2156 29.4053 95.0192 29.4053C96.0247 29.4053 96.7046 30.0293 96.7046 31.0579V33.5824Z" fill="#2B2727"/>
<path fill-rule="evenodd" clip-rule="evenodd" d="M9.8499 3.64927C5.75139 6.4974 3.39791 10.17 3.39791 14.0395V21.0979H0.70459V14.0395C0.70459 9.13094 3.67766 4.36573 9.12771 0.874453L9.85039 0.412109L10.5721 0.874453C16.0221 4.36573 18.9952 9.13094 18.9952 14.0395V21.0979H16.3024V14.0395C16.3024 10.17 13.9489 6.4974 9.8499 3.64927Z" fill="#F63D37"/>
<path fill-rule="evenodd" clip-rule="evenodd" d="M0.672119 35.9077V25.5097L3.27593 23.2207V32.0086L9.79839 25.1585L16.4239 32.0357V23.2425L19.0278 25.5051V35.9077H16.4204L9.80877 28.9501L3.27593 35.9072H0.672119V35.9077Z" fill="#F63D37"/>
<path d="M12.1771 12.7683H1.94495V15.3105H12.1771V12.7683Z" fill="#F63D37"/>
<path d="M44.3807 18.1509V20.7221C44.3807 21.6578 44.9988 22.3598 45.9578 22.3598C46.7922 22.3598 47.2564 21.8917 47.4728 21.424C47.5037 21.3616 47.5191 21.2832 47.6273 21.2832H48.0743C48.167 21.2832 48.2129 21.3616 48.2129 21.424C48.2129 21.9539 47.4882 23.1058 45.9578 23.1058C44.3807 23.1058 43.5787 22.0481 43.5787 20.7533V18.1199C43.5787 16.6532 44.597 15.7825 45.9733 15.7825C47.3801 15.7825 48.3674 16.622 48.3674 18.1199V19.5683C48.3674 19.6306 48.3211 19.708 48.2283 19.708H45.3238C45.2439 19.708 45.179 19.6426 45.179 19.562V19.1241C45.179 19.0851 45.1945 19.0477 45.2213 19.0201C45.2486 18.9932 45.2857 18.9776 45.3238 18.9776H47.5655V18.1509C47.5655 17.2148 46.9474 16.5285 45.9578 16.5285C45.0142 16.5285 44.3807 17.2148 44.3807 18.1509Z" fill="#2B2727"/>
</svg>
